<svg width="51" height="26" viewBox="0 0 51 26" fill="none" xmlns="http://www.w3.org/2000/svg">
<path d="M24.52 6.4C24.52 7.17333 24.4 7.86667 24.16 8.48C23.9467 9.09333 23.64 9.64 23.24 10.12C22.84 10.6 22.3733 11.0267 21.84 11.4C21.3067 11.7733 20.72 12.12 20.08 12.44C20.3733 12.5467 20.72 12.72 21.12 12.96C21.52 13.1733 21.9067 13.48 22.28 13.88C22.6533 14.28 22.96 14.8 23.2 15.44C23.4667 16.0533 23.6 16.8133 23.6 17.72C23.6 18.92 23.3467 20.0267 22.84 21.04C22.3333 22.0533 21.5733 22.9333 20.56 23.68C19.5733 24.4 18.3467 24.9733 16.88 25.4C15.44 25.8 13.7733 26 11.88 26H0L5.4 0.599998H15.92C16.96 0.599998 17.9867 0.679999 19 0.84C20.04 0.973333 20.96 1.25333 21.76 1.68C22.5867 2.10667 23.2533 2.70667 23.76 3.48C24.2667 4.22667 24.52 5.2 24.52 6.4ZM13.64 11.24C14.2267 11.24 14.72 11.0667 15.12 10.72C15.5467 10.3733 15.8933 9.94667 16.16 9.44C16.4267 8.90667 16.6267 8.34667 16.76 7.76C16.8933 7.14667 16.96 6.6 16.96 6.12C16.96 5.34667 16.7733 4.69333 16.4 4.16C16.0533 3.6 15.4933 3.32 14.72 3.32H13.52L11.8 11.24H13.64ZM10.76 23.48C11.56 23.48 12.2267 23.2533 12.76 22.8C13.2933 22.3467 13.7333 21.7867 14.08 21.12C14.4267 20.4533 14.6667 19.76 14.8 19.04C14.96 18.2933 15.04 17.64 15.04 17.08C15.04 16.1467 14.84 15.4133 14.44 14.88C14.0667 14.32 13.4533 14.04 12.6 14.04H11.12L9.16 23.48H10.76ZM39.2691 8.6L45.3891 0.599998H50.1891L40.7091 12L46.6691 26H36.7891L33.3891 18.04L27.2291 26H22.4291L31.8691 14.44L25.9891 0.599998H35.8691L39.2691 8.6Z" fill="url(#paint0_linear_25_2)"/>
<defs>
<linearGradient id="paint0_linear_25_2" x1="24" y1="0.5" x2="24" y2="26" gradientUnits="userSpaceOnUse">
<stop stop-color="white"/>
<stop offset="1" stop-color="white"/>
</linearGradient>
</defs>
</svg>
